# Blender v2.79 (sub 0) OBJ File: ''
# www.blender.org
o Cone
v 0.000000 4.164020 1.000001
v 0.195090 4.164020 0.980786
v 0.382683 4.164020 0.923880
v 0.555570 4.164020 0.831470
v 0.707107 4.164020 0.707107
v 0.831470 4.164020 0.555571
v 0.923880 4.164020 0.382684
v 0.980785 4.164020 0.195091
v 1.000000 4.164020 0.000001
v 0.980785 4.164020 -0.195090
v 0.923880 4.164021 -0.382683
v 0.831470 4.164021 -0.555569
v 0.707107 4.164021 -0.707106
v 0.555570 4.164021 -0.831469
v 0.382683 4.164021 -0.923879
v 0.195090 4.164021 -0.980785
v -0.000000 4.164021 -0.999999
v -0.195091 4.164021 -0.980784
v -0.382684 4.164021 -0.923879
v -0.555571 4.164021 -0.831469
v -0.707107 4.164021 -0.707106
v -0.831470 4.164021 -0.555569
v -0.923880 4.164021 -0.382682
v 0.000000 -0.100413 -0.000001
v -0.980785 4.164020 -0.195089
v -1.000000 4.164020 0.000002
v -0.980785 4.164020 0.195092
v -0.923879 4.164020 0.382685
v -0.831469 4.164020 0.555572
v -0.707106 4.164020 0.707108
v -0.555569 4.164020 0.831471
v -0.382682 4.164020 0.923881
v -0.195089 4.164020 0.980786
vn 0.0955 -0.2273 0.9691
vn 0.2827 -0.2273 0.9319
vn 0.4591 -0.2273 0.8588
vn 0.6178 -0.2273 0.7528
vn 0.7528 -0.2273 0.6178
vn 0.8588 -0.2273 0.4591
vn 0.9319 -0.2273 0.2827
vn 0.9691 -0.2273 0.0955
vn 0.9691 -0.2273 -0.0955
vn 0.9319 -0.2273 -0.2827
vn 0.8588 -0.2273 -0.4591
vn 0.7528 -0.2273 -0.6178
vn 0.6178 -0.2273 -0.7528
vn 0.4591 -0.2273 -0.8588
vn 0.2827 -0.2273 -0.9319
vn 0.0955 -0.2273 -0.9691
vn -0.0955 -0.2273 -0.9691
vn -0.2827 -0.2273 -0.9319
vn -0.4591 -0.2273 -0.8588
vn -0.6178 -0.2273 -0.7528
vn -0.7528 -0.2273 -0.6178
vn -0.8588 -0.2273 -0.4591
vn -0.9319 -0.2273 -0.2827
vn -0.9691 -0.2273 -0.0955
vn -0.9691 -0.2273 0.0955
vn -0.9319 -0.2273 0.2827
vn -0.8588 -0.2273 0.4591
vn -0.7528 -0.2273 0.6178
vn -0.6178 -0.2273 0.7528
vn -0.4591 -0.2273 0.8588
vn -0.2827 -0.2273 0.9319
vn -0.0955 -0.2273 0.9691
vn 0.0000 1.0000 0.0000
s off
f 1//1 24//1 2//1
f 2//2 24//2 3//2
f 3//3 24//3 4//3
f 4//4 24//4 5//4
f 5//5 24//5 6//5
f 6//6 24//6 7//6
f 7//7 24//7 8//7
f 8//8 24//8 9//8
f 9//9 24//9 10//9
f 10//10 24//10 11//10
f 11//11 24//11 12//11
f 12//12 24//12 13//12
f 13//13 24//13 14//13
f 14//14 24//14 15//14
f 15//15 24//15 16//15
f 16//16 24//16 17//16
f 17//17 24//17 18//17
f 18//18 24//18 19//18
f 19//19 24//19 20//19
f 20//20 24//20 21//20
f 21//21 24//21 22//21
f 22//22 24//22 23//22
f 23//23 24//23 25//23
f 25//24 24//24 26//24
f 26//25 24//25 27//25
f 27//26 24//26 28//26
f 28//27 24//27 29//27
f 29//28 24//28 30//28
f 30//29 24//29 31//29
f 31//30 24//30 32//30
f 32//31 24//31 33//31
f 33//32 24//32 1//32
f 1//33 2//33 3//33 4//33 5//33 6//33 7//33 8//33 9//33 10//33 11//33 12//33 13//33 14//33 15//33 16//33 17//33 18//33 19//33 20//33 21//33 22//33 23//33 25//33 26//33 27//33 28//33 29//33 30//33 31//33 32//33 33//33
