# Blender v2.79 (sub 0) OBJ File: ''
# www.blender.org
mtllib cube.mtl
o Cube.004_Cube.005
v -0.511545 0.570342 -1.023090
v 0.511545 -0.452748 -1.023090
v -0.211889 -1.176181 -0.000000
v -1.234978 -0.153091 -0.000000
vn -0.5000 -0.5000 -0.7071
g Cube.004_Cube.005_Cube.004_Cube.005_ReallyBlue
usemtl ReallyBlue
s 1
f 1//1 2//1 3//1 4//1
o Cube.006_Cube.007
v 0.511545 -0.452748 -1.023090
v 1.234978 0.270686 0.000000
v 0.511545 -0.452748 1.023090
v -0.211889 -1.176181 -0.000000
vn 0.7071 -0.7071 -0.0000
g Cube.006_Cube.007_Cube.006_Cube.007_Green
usemtl Green
s 1
f 5//2 6//2 7//2 8//2
o Cube.001_Cube.002
v 1.234978 0.270686 0.000000
v 0.211889 1.293776 0.000000
v -0.511545 0.570342 1.023090
v 0.511545 -0.452748 1.023090
vn 0.5000 0.5000 0.7071
g Cube.001_Cube.002_Cube.001_Cube.002_Purple
usemtl Purple
s 1
f 9//3 10//3 11//3 12//3
o Cube.003_Cube.004
v -0.211889 -1.176181 -0.000000
v 0.511545 -0.452748 1.023090
v -0.511545 0.570342 1.023090
v -1.234978 -0.153091 -0.000000
vn -0.5000 -0.5000 0.7071
g Cube.003_Cube.004_Cube.003_Cube.004_Red
usemtl Red
s 1
f 13//4 14//4 15//4 16//4
o Cube.002_Cube.003
v -1.234978 -0.153091 -0.000000
v -0.511545 0.570342 1.023090
v 0.211889 1.293776 0.000000
v -0.511545 0.570342 -1.023090
vn -0.7071 0.7071 0.0000
g Cube.002_Cube.003_Cube.002_Cube.003_Yellow
usemtl Yellow
s 1
f 17//5 18//5 19//5 20//5
o Cube.005_Cube.006
v -0.511545 0.570342 -1.023090
v 0.211889 1.293776 0.000000
v 1.234978 0.270686 0.000000
v 0.511545 -0.452748 -1.023090
vn 0.5000 0.5000 -0.7071
g Cube.005_Cube.006_Cube.005_Cube.006_Blue
usemtl Blue
s 1
f 21//6 22//6 23//6 24//6
